<?xml version="1.0" encoding="UTF-8"?>
<svg version="1.1" xmlns="http://www.w3.org/2000/svg" width="90" height="11">
<path d="M0 0 C0.99 0 1.98 0 3 0 C3.66 0.66 4.32 1.32 5 2 C5.99 2.33 6.98 2.66 8 3 C8.66 2.67 9.32 2.34 10 2 C13.37822416 1.85624578 15.77390955 1.92463652 19 3 C20.33568021 2.67619874 21.66923011 2.34342449 23 2 C23.66 2.33 24.32 2.66 25 3 C25.33 3.99 25.66 4.98 26 6 C26.33 4.68 26.66 3.36 27 2 C30.3 2.33 33.6 2.66 37 3 C37 2.01 37 1.02 37 0 C38.98 0.33 40.96 0.66 43 1 C43.495 3.475 43.495 3.475 44 6 C44.33 5.01 44.66 4.02 45 3 C48.50147041 1.8328432 51.32670036 1.86642547 55 2 C55.66 2.33 56.32 2.66 57 3 C57.33 2.34 57.66 1.68 58 1 C58.66 1 59.32 1 60 1 C61.04449911 4.13349732 60.93423645 4.98968256 60 8 C60.66 8 61.32 8 62 8 C61.505 4.04 61.505 4.04 61 0 C64.96 0 68.92 0 73 0 C73 0.99 73 1.98 73 3 C72.34 3 71.68 3 71 3 C71 4.98 71 6.96 71 9 C69.68 8.67 68.36 8.34 67 8 C67 6.35 67 4.7 67 3 C66.34 3 65.68 3 65 3 C65 4.98 65 6.96 65 9 C61.33694766 9.74926071 58.57644848 10.2380014 55 9 C54.505 7.02 54.505 7.02 54 5 C54 6.32 54 7.64 54 9 C35.31225296 10.77075099 35.31225296 10.77075099 30 9 C29.34 9.33 28.68 9.66 28 10 C26.32345271 9.72057545 24.65391846 9.39171753 23 9 C22.67 7.68 22.34 6.36 22 5 C22 6.32 22 7.64 22 9 C15.25 10.125 15.25 10.125 13 9 C13 7.68 13 6.36 13 5 C11.68 5 10.36 5 9 5 C9.33 5.66 9.66 6.32 10 7 C10.66 6.67 11.32 6.34 12 6 C11.67 7.32 11.34 8.64 11 10 C10.401875 9.814375 9.80375 9.62875 9.1875 9.4375 C6.83591238 8.77906313 6.83591238 8.77906313 4 10 C0.4375 10.1875 0.4375 10.1875 -3 10 C-3.66 9.34 -4.32 8.68 -5 8 C-4.625 5.375 -4.625 5.375 -4 3 C-2.68 3 -1.36 3 0 3 C0 2.01 0 1.02 0 0 Z M4 4 C4 5.32 4 6.64 4 8 C4.33 6.68 4.66 5.36 5 4 C4.67 4 4.34 4 4 4 Z M15 4 C16 8 16 8 16 8 Z M30 4 C31 6 31 6 31 6 Z M33 4 C33.33 5.32 33.66 6.64 34 8 C34.33 6.68 34.66 5.36 35 4 C34.34 4 33.68 4 33 4 Z M40 4 C41 8 41 8 41 8 Z M50 4 C51 8 51 8 51 8 Z M57 4 C58 8 58 8 58 8 Z " fill="#FFFFFF" transform="translate(17,1)"/>
<path d="M0 0 C2.31 0 4.62 0 7 0 C7 0.99 7 1.98 7 3 C7.33 2.01 7.66 1.02 8 0 C9.32 0 10.64 0 12 0 C11.01 2.97 10.02 5.94 9 9 C6.69 9 4.38 9 2 9 C1.34 6.03 0.68 3.06 0 0 Z M3 2 C4 6 4 6 4 6 Z " fill="#FFFFFF" transform="translate(1,1)"/>
</svg>
